<svg xmlns="http://www.w3.org/2000/svg" width="957" height="162" viewBox="0 0 957 162">
    <g fill="#F40046" fill-rule="evenodd">
        <path d="M34.776 131.914H15.708v3.292H33.47v10.442H15.708v3.859h19.068v11.066H.669v-39.725h34.107v11.066zm39.044-11.066v11.918H63.094v27.807H48.055v-27.807H37.33v-11.918h36.49zm37.625 0v11.918h-10.726v27.807H85.68v-27.807H74.955v-11.918h36.49zm37.966 0h15.038v39.725h-15.038v-14.017h-9.875v14.017h-15.039v-39.725h15.04v13.79h9.874v-13.79zm40.916-.851c13.337 0 21.622 8.002 21.622 20.77 0 12.712-8.285 20.657-21.622 20.657-13.336 0-21.621-7.945-21.621-20.657 0-12.768 8.285-20.77 21.621-20.77zm0 12.258c-3.972 0-6.412 3.235-6.412 8.456 0 5.22 2.44 8.455 6.412 8.455 3.973 0 6.413-3.234 6.413-8.455s-2.44-8.456-6.413-8.456zm59.815-11.407v11.918h-10.726v27.807h-15.039v-27.807h-10.725v-11.918h36.49zm47.16 11.066h-19.069v3.292h17.763v10.442h-17.763v3.859h19.068v11.066h-34.107v-39.725h34.107v11.066zm20.145 16.742h17.196v11.917h-32.234v-39.725h15.038v27.808zm37.058 0H371.7v11.917h-32.234v-39.725h15.04v27.808zm56.126-16.742h-19.068v3.292h17.763v10.442h-17.763v3.859h19.068v11.066h-34.107v-39.725h34.107v11.066zm44.095 28.66h-16.23l-4.144-12.202h-3.575v12.201h-15.039v-39.725h23.268c8.74 0 15.039 5.789 15.039 13.734 0 5.05-2.497 9.25-6.583 11.633l7.264 14.358zm-23.949-29.227v6.753h5.108c2.156 0 3.688-1.475 3.688-3.518 0-1.873-1.532-3.235-3.688-3.235h-5.108zm71.675.567h-19.068v3.292h17.763v10.442h-17.763v3.859h19.068v11.066h-34.106v-39.725h34.106v11.066zm30.305-11.066h14.755v39.725h-12.769l-12.428-17.082v17.082H507.56v-39.725h13.336l11.86 16.458v-16.458zm61.517 0h13.904v39.725H593.99v-19.068l-7.775 9.988h-1.135l-7.774-9.988v19.068h-14.188v-39.725h13.904l8.626 11.86 8.626-11.86zm26.73-2.894v-9.648h11.917v9.648h-11.918zm14.187 0v-9.648h11.917v9.648h-11.917zm-1.135 2.043c13.336 0 21.621 8.002 21.621 20.77 0 12.712-8.285 20.657-21.621 20.657-13.337 0-21.622-7.945-21.622-20.657 0-12.768 8.285-20.77 21.622-20.77zm0 12.258c-3.973 0-6.413 3.235-6.413 8.456 0 5.22 2.44 8.455 6.413 8.455 3.972 0 6.412-3.234 6.412-8.455s-2.44-8.456-6.412-8.456zm24.175 15.833c2.327 1.022 4.03 1.532 5.845 1.532 3.349 0 4.313-1.645 4.313-4.256v-24.516h14.926v25.48c0 8.57-4.654 15.096-16.685 15.096-3.405 0-6.072-.454-8.399-1.135v-12.2zm46.081.568h17.195v11.917h-32.234v-39.725h15.04v27.808zm49.146-18.16h-6.47v20.43h6.47v9.647H725.48v-9.647h6.47v-20.43h-6.47v-9.648h27.978v9.648zm23.267 16.514v-10.215h21.735v23.778h-9.363l-1.079-3.689c-2.497 2.951-6.129 4.54-11.01 4.54-12.427 0-20.145-7.945-20.145-20.657 0-12.768 8.342-20.77 21.792-20.77 11.236 0 18.897 5.732 19.976 14.982h-15.38c-.624-1.703-1.645-3.348-4.88-3.348-4.654 0-6.413 4.426-6.413 9.023 0 5.902 2.043 8.966 6.81 8.966 2.27 0 3.973-.85 5.108-2.61h-7.15zm52.494-26.162h15.039v39.725h-15.04v-14.017h-9.874v14.017h-15.038v-39.725h15.038v13.79h9.875v-13.79zm55.388 11.066h-19.068v3.292h17.763v10.442h-17.763v3.859h19.068v11.066H850.5v-39.725h34.107v11.066zm39.044-11.066v11.918h-10.726v27.807h-15.039v-27.807h-10.725v-11.918h36.49zm16.741-.851c8.853 0 14.925 5.164 14.925 11.747 0 7.207-4.596 9.931-9.817 11.747l-.454.17v2.725h-10.783v-7.378l5.164-2.383c2.951-1.362 4.03-2.497 4.03-4.086 0-1.59-1.306-2.781-3.122-2.781-2.043 0-3.575 1.021-3.688 3.178h-11.804c.283-8.91 6.923-12.94 15.55-12.94zm-7.377 40.576v-10.782h13.052v10.782h-13.052zM70.035 24.148v22.628H49.67v52.797H21.116V46.776H.752V24.148h69.283zm71.761 21.011h-36.204v6.25h33.726v19.826h-33.726v7.327h36.204v21.011H77.04V24.148h64.757V45.16zm33.618 28.23c.216 5.604 4.203 7.543 7.758 7.543 4.741 0 6.896-1.616 6.896-4.31 0-2.693-3.017-3.663-10.344-5.172-12.606-2.586-31.355-5.172-31.355-24.459 0-14.654 11.53-24.46 34.05-24.46 20.148 0 33.94 8.082 35.341 26.4h-27.584c-.646-5.065-4.418-6.896-7.65-6.896-4.202 0-6.034 1.616-6.034 3.879 0 2.801 4.094 4.094 12.714 6.034 11.853 2.586 29.416 3.663 29.416 22.843 0 15.623-12.068 26.398-35.45 26.398-20.041 0-35.45-8.296-35.988-27.8h28.23zM290.6 24.15v22.627h-20.365v52.797h-28.553V46.776h-20.365V24.148h69.283zm60.125 75.424l-2.586-9.159h-23.705l-2.586 9.16h-29.955L319.8 24.147h32.972l27.907 75.425h-29.954zM329.82 71.02h12.93l-6.465-23.166-6.465 23.166zm112.06-48.487c25.321 0 41.053 15.193 41.053 39.436 0 24.136-15.732 39.221-41.053 39.221-25.321 0-41.053-15.085-41.053-39.22 0-24.244 15.732-39.437 41.053-39.437zm0 23.274c-7.542 0-12.176 6.142-12.176 16.055s4.634 16.054 12.176 16.054c7.543 0 12.176-6.141 12.176-16.054 0-9.913-4.633-16.055-12.176-16.055zM550.17 24.148h26.399v75.425H549.63V63.37l-14.762 18.964h-2.155L517.952 63.37v36.204h-26.938V24.148h26.399l16.378 22.52 16.378-22.52zm87.816 0c27.8 0 43.962 15.624 43.962 37.174 0 22.196-16.162 38.251-43.962 38.251H606.2V24.148h31.786zm1.078 52.798c8.727 0 14.007-5.927 14.007-15.624 0-9.051-5.28-14.546-14.007-14.546h-4.31v30.17h4.31zm96.113-52.798h28.661v44.716c0 17.78-15.408 31.787-37.174 31.787-21.765 0-37.173-14.008-37.173-31.787V24.148h28.661v43.747c0 5.28 3.556 9.05 8.512 9.05 4.957 0 8.513-3.77 8.513-9.05V24.148zM829.456.335v18.318H806.83V.335h22.628zm26.938 0v18.318h-22.627V.335h22.627zM846.05 99.573l-2.586-9.159H819.76l-2.586 9.16H787.22l27.907-75.426h32.972l27.907 75.425H846.05zM825.147 71.02h12.93l-6.465-23.166-6.465 23.166zM956.17 99.573h-30.817l-7.865-23.166H910.7v23.166h-28.553V24.148h44.177c16.594 0 28.554 10.99 28.554 26.076 0 9.59-4.741 17.563-12.5 22.088l13.793 27.261zM910.7 44.082v12.822h9.697c4.094 0 7.004-2.801 7.004-6.68 0-3.556-2.91-6.142-7.004-6.142H910.7z"/>
    </g>
</svg>
