<svg xmlns="http://www.w3.org/2000/svg" width="958" height="194" viewBox="0 0 958 194">
    <g fill="#F40046" fill-rule="nonzero">
        <path d="M29.94 192.757l-1.316-4.661H16.56l-1.316 4.66H0l14.202-38.383h16.78l14.202 38.384H29.94zm-10.638-14.531h6.58l-3.29-11.79-3.29 11.79zm70.846-23.853H54.89v11.515h10.364v26.869h14.531v-26.87h10.364v-11.514zm27.637 0v13.324h-9.541v-13.324H93.712v38.384h14.532v-13.544h9.54v13.544h14.532v-38.384h-14.531zm58.234 38.384h-15.683l-4.003-11.79h-3.454v11.79h-14.531v-38.384h22.482c8.444 0 14.531 5.593 14.531 13.27 0 4.88-2.413 8.938-6.36 11.24l7.018 13.874zm-23.14-28.24v6.525h4.935c2.084 0 3.564-1.425 3.564-3.4 0-1.809-1.48-3.125-3.564-3.125h-4.935zm60.208.548v-10.692h-32.955v38.384h32.955v-10.693h-18.424v-3.729h17.163v-10.09h-17.163v-3.18h18.424zm31.969 27.692l-1.316-4.661h-12.064l-1.316 4.66h-15.244l14.202-38.383h16.78l14.202 38.384h-15.244zm-10.638-14.531h6.58l-3.29-11.79-3.29 11.79zm61.799-23.853h-35.26v11.515h10.365v26.869h14.53v-26.87h10.365v-11.514zm31.584-.823c12.886 0 20.892 7.732 20.892 20.07 0 12.282-8.006 19.96-20.892 19.96s-20.892-7.678-20.892-19.96c0-12.338 8.006-20.07 20.892-20.07zm0 11.844c-3.838 0-6.196 3.126-6.196 8.17 0 5.045 2.358 8.171 6.196 8.171 3.839 0 6.197-3.126 6.197-8.17 0-5.045-2.358-8.17-6.197-8.17zm62.676 27.363h-15.682l-4.003-11.79h-3.455v11.79h-14.531v-38.384h22.482c8.445 0 14.531 5.593 14.531 13.27 0 4.88-2.412 8.938-6.36 11.24l7.018 13.874zm-23.14-28.24v6.525h4.935c2.084 0 3.564-1.425 3.564-3.4 0-1.809-1.48-3.125-3.564-3.125h-4.935zm63.334 28.24l-1.316-4.661h-12.064l-1.316 4.66h-15.244l14.202-38.383h16.78l14.202 38.384h-15.244zm-10.638-14.531h6.58l-3.29-11.79-3.29 11.79zm53.354-23.853v15.902l-11.46-15.902H449.04v38.384h14.257v-16.505l12.008 16.505h12.338v-38.384h-14.257zm48.31-.823c12.886 0 20.891 7.732 20.891 20.07 0 12.282-8.005 19.96-20.892 19.96-12.886 0-20.892-7.678-20.892-19.96 0-12.338 8.006-20.07 20.892-20.07zm0 11.844c-3.839 0-6.197 3.126-6.197 8.17 0 5.045 2.358 8.171 6.196 8.171 3.839 0 6.197-3.126 6.197-8.17 0-5.045-2.358-8.17-6.197-8.17zm47.322-11.021c8.718 0 14.53 5.428 14.53 13.708 0 7.293-5.812 13.709-14.53 13.709h-7.787v10.967h-14.531v-38.384h22.318zm-3.29 17.218c2.412 0 3.838-1.59 3.838-3.51 0-1.919-1.426-3.51-3.838-3.51h-4.497v7.02h4.497zm43.703-17.218c8.719 0 14.531 5.428 14.531 13.708 0 7.293-5.812 13.709-14.531 13.709h-7.787v10.967h-14.53v-38.384h22.317zm-3.29 17.218c2.412 0 3.838-1.59 3.838-3.51 0-1.919-1.426-3.51-3.838-3.51h-4.497v7.02h4.497zM646.5 153.55c12.886 0 20.892 7.732 20.892 20.07 0 12.282-8.006 19.96-20.892 19.96s-20.892-7.678-20.892-19.96c0-12.338 8.006-20.07 20.892-20.07zm0 11.844c-3.838 0-6.196 3.126-6.196 8.17 0 5.045 2.358 8.171 6.196 8.171 3.838 0 6.196-3.126 6.196-8.17 0-5.045-2.358-8.17-6.196-8.17zm62.676 27.363h-15.683l-4.003-11.79h-3.454v11.79h-14.531v-38.384h22.482c8.444 0 14.531 5.593 14.531 13.27 0 4.88-2.413 8.938-6.36 11.24l7.018 13.874zm-23.14-28.24v6.525h4.935c2.084 0 3.564-1.425 3.564-3.4 0-1.809-1.48-3.125-3.564-3.125h-4.935zm60.044-10.144H710.82v11.515h10.364v26.869h14.53v-26.87h10.365v-11.514zm26.54 0v22.262c0 2.687-1.81 4.606-4.332 4.606-2.523 0-4.332-1.919-4.332-4.606v-22.262H749.37v22.756c0 9.048 7.841 16.176 18.918 16.176 11.076 0 18.918-7.128 18.918-16.176v-22.756H772.62zm44.69 0v15.902l-11.46-15.902h-12.887v38.384h14.257v-16.505l12.009 16.505h12.338v-38.384H817.31zm46.5 9.321v-9.321h-27.034v9.321h6.251v19.74h-6.25v9.323h27.033v-9.322h-6.252v-19.74h6.252zm38-9.321h-35.259v11.515h10.364v26.869h14.531v-26.87h10.364v-11.514zm42.552 0h-16.78l-4.167 11.46-4.168-11.46h-16.779l13.709 26.265v12.119h14.53v-12.228l13.655-26.156zm.478 38.384H958v-12.612h-13.16v12.612zM28.367 134.728l-1.246-4.416H15.69l-1.247 4.416H0l13.456-36.369h15.899l13.456 36.369H28.367zM18.288 120.96h6.235l-3.118-11.17-3.117 11.17zm50.553-22.6v15.066L57.98 98.36H45.773v36.369h13.509v-15.639l11.378 15.639h11.69V98.359H68.84zm34.55 0c13.404 0 21.197 7.533 21.197 17.924 0 10.703-7.793 18.444-21.197 18.444H88.064V98.359h15.327zm.52 25.457c4.208 0 6.753-2.857 6.753-7.533 0-4.364-2.545-7.014-6.754-7.014h-2.078v14.547h2.078zm64.372-14.547V98.36h-31.225v36.368h13.768v-11.222h15.638v-10.391h-15.638v-3.845h17.457zm28.73-2.078v-8.833H171.4v8.833h5.923v18.704H171.4v8.832h25.614v-8.832h-5.923v-18.704h5.923zm28.005-8.833v15.067l-10.86-15.067H201.95v36.369h13.509v-15.639l11.378 15.639h11.69V98.359h-13.508zm34.55 0c13.404 0 21.197 7.534 21.197 17.925 0 10.703-7.793 18.444-21.197 18.444H244.24V98.359h15.327zm.52 25.458c4.208 0 6.753-2.857 6.753-7.533 0-4.364-2.545-7.014-6.754-7.014h-2.078v14.547h2.078zM311.21 97.58c12.21 0 19.795 7.326 19.795 19.016 0 11.638-7.586 18.911-19.795 18.911-12.21 0-19.795-7.273-19.795-18.911 0-11.69 7.586-19.016 19.795-19.016zm0 11.222c-3.637 0-5.87 2.962-5.87 7.742 0 4.78 2.233 7.74 5.87 7.74s5.87-2.96 5.87-7.74-2.233-7.742-5.87-7.742zm45.46-10.443v21.094c0 2.546-1.714 4.364-4.104 4.364s-4.104-1.818-4.104-4.364V98.36h-13.82v21.562c0 8.572 7.43 15.326 17.924 15.326 10.495 0 17.925-6.754 17.925-15.326V98.359h-13.82zm50.345 0H373.61v10.91h9.82v25.459h13.768V109.27h9.82V98.36zm50.189 0l-3.533 19.276-4.832-19.276h-10.443l-4.884 19.276-3.48-19.276h-13.82l9.04 36.369h13.871l4.469-19.223 4.52 19.223h13.872l9.04-36.369h-13.82zm39.59 0v12.625h-9.04V98.36h-13.769v36.369h13.768v-12.833h9.04v12.833h13.769V98.359h-13.768zm50.708 10.132V98.359h-31.225v36.369h31.225v-10.131h-17.457v-3.533h16.262v-9.56h-16.262v-3.013h17.457zm35.745-10.132H549.84v10.91h9.82v25.459h13.767V109.27h9.82V98.36zm26.185 0v12.625h-9.04V98.36h-13.768v36.369h13.768v-12.833h9.04v12.833h13.768V98.359h-13.768zm50.708 10.132V98.359h-31.225v36.369h31.225v-10.131h-17.456v-3.533h16.261v-9.56h-16.261v-3.013h17.456zm40.37 26.237h-14.86l-3.792-11.17h-3.274v11.17h-13.768V98.359h21.302c8.001 0 13.768 5.3 13.768 12.573 0 4.624-2.286 8.47-6.027 10.651l6.65 13.145zm-21.926-26.757v6.183h4.676c1.975 0 3.378-1.351 3.378-3.222 0-1.714-1.403-2.961-3.378-2.961h-4.676zm71.335-9.612h-15.898l-3.949 10.859-3.949-10.859h-15.898l12.989 24.887v11.482h13.768v-11.586l12.937-24.783zm20.938-.779c12.21 0 19.795 7.326 19.795 19.016 0 11.638-7.586 18.911-19.795 18.911-12.21 0-19.795-7.273-19.795-18.911 0-11.69 7.585-19.016 19.795-19.016zm0 11.222c-3.637 0-5.871 2.962-5.871 7.742 0 4.78 2.234 7.74 5.87 7.74 3.638 0 5.872-2.96 5.872-7.74s-2.234-7.742-5.871-7.742zm45.46-10.443v21.094c0 2.546-1.714 4.364-4.104 4.364s-4.104-1.818-4.104-4.364V98.36h-13.82v21.562c0 8.572 7.43 15.326 17.924 15.326 10.495 0 17.925-6.754 17.925-15.326V98.359h-13.82zm53.462 36.369l-1.247-4.416h-11.43l-1.247 4.416h-14.443l13.456-36.369h15.898l13.457 36.369H869.78zm-10.079-13.768h6.235l-3.118-11.17-3.117 11.17zm63.177 13.768H908.02l-3.793-11.17h-3.273v11.17h-13.768V98.359h21.302c8 0 13.768 5.3 13.768 12.573 0 4.624-2.286 8.47-6.027 10.651l6.65 13.145zm-21.925-26.757v6.183h4.676c1.975 0 3.377-1.351 3.377-3.222 0-1.714-1.402-2.961-3.377-2.961h-4.676zm57.047.52V98.359h-31.225v36.369H958v-10.131h-17.457v-3.533h16.262v-9.56h-16.262v-3.013H958zM70.967 1.656H0v23.177h20.86v54.08h29.247v-54.08h20.86V1.656zm73.506 21.521V1.656H78.14v77.258h66.332V57.392h-37.084v-7.505h34.545V29.579H107.39v-6.402h37.084zm34.435 28.917H149.99c.552 19.977 16.335 28.475 36.863 28.475 23.95 0 36.311-11.037 36.311-27.04 0-19.646-17.99-20.75-30.13-23.398-8.83-1.987-13.024-3.311-13.024-6.181 0-2.318 1.877-3.973 6.18-3.973 3.312 0 7.175 1.876 7.837 7.063h28.254C220.848 8.278 206.721 0 186.082 0c-23.067 0-34.877 10.044-34.877 25.054 0 19.756 19.204 22.405 32.117 25.053 7.505 1.546 10.596 2.539 10.596 5.298 0 2.76-2.208 4.415-7.064 4.415-3.642 0-7.726-1.987-7.946-7.726zM296.892 1.656h-70.967v23.177h20.86v54.08h29.247v-54.08h20.86V1.656zm103.857 0h-33.773l-8.388 23.067L350.2 1.656h-33.773l27.592 52.866v24.392h29.248V54.3l27.482-52.645zM445.227 0c25.937 0 42.05 15.562 42.05 40.395 0 24.723-16.113 40.174-42.05 40.174-25.936 0-42.05-15.451-42.05-40.174C403.177 15.562 419.29 0 445.227 0zm0 23.84c-7.726 0-12.471 6.29-12.471 16.445 0 10.153 4.745 16.444 12.471 16.444S457.7 50.44 457.7 40.285s-4.746-16.445-12.472-16.445zM541.8 1.656v44.81c0 5.407-3.642 9.27-8.72 9.27-5.076 0-8.718-3.863-8.718-9.27V1.655h-29.359v45.803c0 18.21 15.783 32.558 38.078 32.558 22.294 0 38.077-14.348 38.077-32.558V1.656H541.8zm116.77 77.258h-31.566l-8.057-23.73h-6.953v23.73h-29.247V1.656h45.25c16.997 0 29.248 11.257 29.248 26.709 0 9.823-4.856 17.99-12.802 22.625l14.127 27.924zm-46.576-56.84v13.134h9.933c4.194 0 7.174-2.87 7.174-6.843 0-3.642-2.98-6.291-7.174-6.291h-9.933zm79.355 30.02h-28.916c.552 19.977 16.334 28.475 36.863 28.475 23.95 0 36.311-11.037 36.311-27.04 0-19.646-17.99-20.75-30.13-23.398-8.83-1.987-13.024-3.311-13.024-6.181 0-2.318 1.876-3.973 6.18-3.973 3.312 0 7.175 1.876 7.837 7.063h28.254C733.29 8.278 719.162 0 698.524 0c-23.068 0-34.877 10.044-34.877 25.054 0 19.756 19.204 22.405 32.117 25.053 7.505 1.546 10.595 2.539 10.595 5.298 0 2.76-2.207 4.415-7.063 4.415-3.642 0-7.726-1.987-7.947-7.726zm118.316-28.917V1.656h-66.332v77.258h66.332V57.392H772.58v-7.505h34.545V29.579h-34.545v-6.402h37.084zm39.18 32.56V1.655h-29.247v77.258h62.69V55.736h-33.443zM958 24.832V1.656h-66.332v77.258h29.248v-23.84h33.221V33h-33.22v-8.167H958z"/>
    </g>
</svg>
